<svg width="100" height="93" viewBox="0 0 100 93" fill="none" xmlns="http://www.w3.org/2000/svg">
<g filter="url(#filter0_d_89_99)">
<path d="M51.9454 0.0821915C51.1572 0.195084 49.8193 0.586906 48.5437 1.07169C44.7168 2.52606 41.6677 4.67109 39.6557 7.32747C37.7785 9.80454 36.9592 12.3414 37.2185 14.8649C37.3741 16.3459 37.6437 17.1428 38.2764 18.0393C38.4319 18.2718 38.5667 18.4843 38.5667 18.5042C38.5667 18.5307 38.0689 18.2319 37.457 17.8467C34.6465 16.0802 31.9915 14.845 28.8698 13.8688C24.4621 12.4875 20.5522 12.0957 17.2231 12.7133C12.8569 13.5168 9.15442 15.8611 8.09657 18.4843C7.2254 20.6226 7.89952 22.5352 10.233 24.5607C11.519 25.6764 14.0599 27.1441 16.4764 28.1668C20.6352 29.9266 26.1422 30.8696 31.7944 30.7966C32.7175 30.7833 33.4434 30.7899 33.402 30.8099C33.3605 30.8298 32.5826 31.0489 31.67 31.3013C29.6787 31.8525 26.9823 32.7158 25.914 33.1608C22.8131 34.4292 20.5315 36.1027 18.7684 38.3805C16.7253 41.0104 16.0927 43.8195 16.9535 46.3762C17.5031 48.0166 18.5402 49.192 20.5004 50.4073C24.1821 52.6785 29.9069 53.5551 34.9887 52.6187C36.7 52.3066 38.9297 51.5163 40.7965 50.56C45.5257 48.1427 49.0726 44.5301 50.4209 40.7646L50.6698 40.0673L50.732 40.6318C50.8876 41.9467 50.929 44.1449 50.815 45.6457C50.5557 49.099 50.0682 51.171 48.2948 56.3377C46.1065 62.7727 45.5154 65.7678 45.5154 70.6157C45.5154 73.2654 45.6813 75.2777 46.148 78.2528C46.3554 79.6341 46.8947 82.4034 47.0606 82.9612C47.2058 83.4659 47.0192 83.2202 46.7599 82.5694C46.3762 81.5799 44.6546 78.3325 43.8249 77.0242C38.7949 69.0617 31.753 63.6161 22.5435 60.548C17.3994 58.8347 12.162 57.9846 5.54529 57.792L4 57.7455L4.06223 59.1999C4.10371 60.0035 4.19705 61.0395 4.29039 61.5176C5.46232 67.78 10.1812 72.442 19.1832 76.2539C23.2176 77.954 27.3764 79.2755 36.5962 81.7725C41.1388 83.0011 43.3167 83.6253 45.7124 84.3691L47.7244 85L51.7795 83.6917C63.2914 79.9794 67.0768 78.545 71.5467 76.1675C80.6214 71.3462 83.9505 65.2033 81.7622 57.3338C81.4822 56.3443 81.2437 55.6536 81.1711 55.6005C81.1088 55.5673 78.1427 55.9591 76.4211 56.2381C69.1717 57.4002 63.5299 59.2995 59.4437 61.9559C56.8924 63.6095 55.0878 65.3627 53.5737 67.6273C51.821 70.2438 50.9083 72.6346 49.4564 78.3524C49.0519 79.9396 48.5852 81.7327 48.4089 82.337C48.2326 82.9413 48.0666 83.5324 48.0355 83.6519C47.9007 84.1632 47.8281 83.7515 47.7659 82.0581C47.517 75.6695 47.9111 69.7524 48.9482 64.2736C49.4149 61.8098 50.0268 59.3327 51.2713 54.9099C53.0344 48.6209 53.3144 46.0708 52.6092 42.7901C52.4328 41.9932 51.8936 40.2732 51.738 39.9943C51.5928 39.7619 51.8002 39.8482 52.0076 40.1205C52.578 40.8311 54.756 42.8366 56.1872 43.9523C57.3487 44.8688 59.7341 46.3962 60.9786 47.0271C65.77 49.4444 70.5511 50.3077 74.5543 49.4643C78.8376 48.5545 82.4778 46.0044 84.2098 42.6905C84.8943 41.369 85.0602 40.6982 84.998 39.4697C84.9358 38.3739 84.8113 37.9422 84.3135 37.0789C83.1416 35.0733 80.5281 33.0877 76.6285 31.2349C75.6329 30.7634 73.8802 30.1391 73.5483 30.1391C73.4757 30.1391 73.4135 30.1192 73.4135 30.086C73.4135 30.0594 73.7246 30.0262 74.1187 30.0196C75.3944 29.9864 76.7426 29.8004 79.9369 29.2094C86.2218 28.0472 89.1257 27.2038 91.9362 25.7229C94.6949 24.2685 96.1884 22.1102 95.9809 19.8789C95.8357 18.2518 95.0683 17.1561 93.2015 15.8943C89.9139 13.6629 85.4439 12.5406 79.9058 12.5406C76.8774 12.5406 74.5543 12.7863 71.5778 13.4172C68.0932 14.1544 65.0026 15.3564 62.472 16.9568L61.4246 17.6209L62.0053 16.824C63.5921 14.6856 64.6292 12.3812 64.7744 10.7144C64.9818 8.19743 63.3536 5.23557 60.5534 3.04405C59.3607 2.10768 57.7117 1.13146 56.4879 0.626755C55.1293 0.0755539 53.4388 -0.130318 51.9454 0.0821915Z" fill="#DBFFB7"/>
</g>
<defs>
<filter id="filter0_d_89_99" x="0" y="0" width="100" height="93" filterUnits="userSpaceOnUse" color-interpolation-filters="sRGB">
<feFlood flood-opacity="0" result="BackgroundImageFix"/>
<feColorMatrix in="SourceAlpha" type="matrix" values="0 0 0 0 0 0 0 0 0 0 0 0 0 0 0 0 0 0 127 0" result="hardAlpha"/>
<feOffset dy="4"/>
<feGaussianBlur stdDeviation="2"/>
<feComposite in2="hardAlpha" operator="out"/>
<feColorMatrix type="matrix" values="0 0 0 0 0 0 0 0 0 0 0 0 0 0 0 0 0 0 0.25 0"/>
<feBlend mode="normal" in2="BackgroundImageFix" result="effect1_dropShadow_89_99"/>
<feBlend mode="normal" in="SourceGraphic" in2="effect1_dropShadow_89_99" result="shape"/>
</filter>
</defs>
</svg>
